M48
;DRILL file {KiCad 5.0.0-fee4fd1~65~ubuntu17.10.1} date Tue Nov 13 13:37:22 2018
;FORMAT={-:-/ absolute / inch / decimal}
FMAT,2
INCH,TZ
T1C0.0157
T2C0.0236
T3C0.0300
T4C0.0315
T5C0.0394
T6C0.0433
T7C0.0472
%
G90
G05
M72
T1
X4.8Y-3.05
X4.8Y-3.15
X4.8Y-3.6
X4.8Y-3.8
X4.85Y-4.2
X4.9Y-3.05
X4.9Y-3.15
X4.95Y-3.6
X4.95Y-3.8
X4.95Y-4.2
X4.95Y-4.3
X5.Y-3.05
X5.Y-3.15
X5.04Y-3.545
X5.05Y-3.4
X5.085Y-3.725
X5.24Y-3.2
X5.285Y-3.09
X5.35Y-3.5
X5.35Y-3.6
X5.35Y-3.7
X5.35Y-3.8
X5.5Y-3.05
X5.5Y-3.15
X5.6Y-3.05
X5.6Y-3.15
X5.6Y-3.5
X5.65Y-3.8
X5.7Y-3.05
X5.7Y-3.15
X5.7Y-4.2
X5.7Y-4.3
X5.75Y-3.6
X5.8Y-3.05
X5.8Y-3.15
X5.8Y-4.2
X5.9Y-3.6
X5.9Y-3.8
T2
X5.1Y-2.955
T3
X5.295Y-2.93
X5.395Y-2.93
X5.19Y-3.8
X5.515Y-3.8
X5.19Y-3.65
X5.515Y-3.65
X5.19Y-3.35
X5.515Y-3.35
X5.19Y-3.5
X5.515Y-3.5
T4
X5.1Y-2.875
T5
X4.883Y-3.358
X4.883Y-3.458
X4.883Y-3.558
X4.883Y-3.658
X4.883Y-3.758
X4.883Y-3.858
X4.883Y-3.958
X4.883Y-4.058
X5.808Y-3.358
X5.808Y-3.458
X5.808Y-3.558
X5.808Y-3.658
X5.808Y-3.758
X5.808Y-3.858
X5.808Y-3.958
X5.808Y-4.058
T6
X5.145Y-4.045
X5.245Y-4.045
X5.445Y-4.045
X5.545Y-4.045
T7
X5.345Y-4.245
T0
M30
