G04 #@! TF.GenerationSoftware,KiCad,Pcbnew,5.0.0-fee4fd1~65~ubuntu17.10.1*
G04 #@! TF.CreationDate,2018-11-13T13:37:27+00:00*
G04 #@! TF.ProjectId,Power Monitor Version 1,506F776572204D6F6E69746F72205665,rev?*
G04 #@! TF.SameCoordinates,Original*
G04 #@! TF.FileFunction,Legend,Top*
G04 #@! TF.FilePolarity,Positive*
%FSLAX46Y46*%
G04 Gerber Fmt 4.6, Leading zero omitted, Abs format (unit mm)*
G04 Created by KiCad (PCBNEW 5.0.0-fee4fd1~65~ubuntu17.10.1) date Tue Nov 13 13:37:27 2018*
%MOMM*%
%LPD*%
G01*
G04 APERTURE LIST*
%ADD10C,0.150000*%
G04 APERTURE END LIST*
D10*
G04 #@! TO.C,C1*
X132080000Y-74041000D02*
G75*
G03X132080000Y-74041000I-2540000J0D01*
G01*
X127952500Y-76009500D02*
X131127500Y-76009500D01*
X131127500Y-76009500D02*
X130937000Y-76136500D01*
X130937000Y-76136500D02*
X128143000Y-76136500D01*
X128143000Y-76136500D02*
X128333500Y-76263500D01*
X128333500Y-76263500D02*
X130683000Y-76263500D01*
X130683000Y-76263500D02*
X130429000Y-76390500D01*
X130429000Y-76390500D02*
X128651000Y-76390500D01*
X128651000Y-76390500D02*
X128905000Y-76454000D01*
X128905000Y-76454000D02*
X129984500Y-76454000D01*
G04 #@! TO.C,D1*
X138303000Y-74422000D02*
G75*
G03X138303000Y-74422000I-2540000J0D01*
G01*
X137795000Y-72898000D02*
X137795000Y-74041000D01*
X137795000Y-74803000D02*
X137795000Y-75946000D01*
X137922000Y-73152000D02*
X137922000Y-75692000D01*
X138049000Y-73406000D02*
X138049000Y-75438000D01*
X138176000Y-73660000D02*
X138176000Y-75184000D01*
G04 #@! TO.C,J1*
X135763000Y-100711000D02*
X129667000Y-100711000D01*
X129667000Y-109347000D02*
X129667000Y-111887000D01*
X129667000Y-111887000D02*
X130175000Y-111887000D01*
X135763000Y-100711000D02*
X141859000Y-100711000D01*
X141859000Y-111887000D02*
X141351000Y-111887000D01*
X131191000Y-111887000D02*
X131191000Y-112395000D01*
X131191000Y-111887000D02*
X129667000Y-111887000D01*
X129667000Y-111887000D02*
X129667000Y-103759000D01*
X129667000Y-101727000D02*
X129667000Y-100711000D01*
X129667000Y-100711000D02*
X141859000Y-100711000D01*
X141859000Y-100711000D02*
X141859000Y-101727000D01*
X140335000Y-112395000D02*
X140335000Y-111887000D01*
X140335000Y-111887000D02*
X141859000Y-111887000D01*
X141859000Y-111887000D02*
X141859000Y-103759000D01*
X131191000Y-112395000D02*
X132715000Y-112395000D01*
X140335000Y-112395000D02*
X138811000Y-112395000D01*
X132715000Y-112395000D02*
X132715000Y-114427000D01*
X132715000Y-114427000D02*
X138811000Y-114427000D01*
X138811000Y-114427000D02*
X138811000Y-112395000D01*
X138811000Y-112395000D02*
X132715000Y-112395000D01*
G04 #@! TO.C,M1*
X148792001Y-111962001D02*
X125360501Y-111962001D01*
X122757001Y-106183501D02*
X122757001Y-80212001D01*
X148792001Y-111962001D02*
X148792001Y-80212001D01*
X125932001Y-77037001D02*
X145617001Y-77037001D01*
X122757001Y-80212001D02*
G75*
G02X125932001Y-77037001I3175000J0D01*
G01*
X122757001Y-80212001D02*
G75*
G02X125932001Y-77037001I3175000J0D01*
G01*
X145617001Y-77037001D02*
G75*
G02X148792001Y-80212001I0J-3175000D01*
G01*
X122757001Y-106183501D02*
X125360501Y-106183501D01*
X125360501Y-106183501D02*
X125360501Y-111962001D01*
X129932501Y-83069501D02*
X141616501Y-83069501D01*
X141616501Y-83069501D02*
X141616501Y-98246001D01*
X141616501Y-98246001D02*
X129869001Y-98246001D01*
X129869001Y-98246001D02*
X129932501Y-83069501D01*
X127837001Y-77672001D02*
X127837001Y-100532001D01*
X127837001Y-100532001D02*
X143712001Y-100532001D01*
X143712001Y-100532001D02*
X143712001Y-77672001D01*
X143712001Y-77672001D02*
X127837001Y-77672001D01*
X131647001Y-81482001D02*
X131647001Y-78307001D01*
X131647001Y-78307001D02*
X135457001Y-78307001D01*
X135457001Y-78307001D02*
X135457001Y-79577001D01*
X135457001Y-79577001D02*
X136727001Y-79577001D01*
X136727001Y-79577001D02*
X136727001Y-78307001D01*
X136727001Y-78307001D02*
X137997001Y-78307001D01*
X137997001Y-78307001D02*
X137997001Y-79577001D01*
X137997001Y-79577001D02*
X139267001Y-79577001D01*
X139267001Y-79577001D02*
X139267001Y-78307001D01*
X139267001Y-78307001D02*
X140537001Y-78307001D01*
X140537001Y-78307001D02*
X140537001Y-81482001D01*
X133552001Y-78307001D02*
X133552001Y-81482001D01*
G04 #@! TO.C,R1*
X133096000Y-95377000D02*
X138811000Y-95377000D01*
X138811000Y-95377000D02*
X138811000Y-97663000D01*
X138811000Y-97663000D02*
X133096000Y-97663000D01*
X133096000Y-97663000D02*
X133096000Y-95377000D01*
X133096000Y-96520000D02*
X132715000Y-96520000D01*
X139192000Y-96520000D02*
X138811000Y-96520000D01*
G04 #@! TO.C,R2*
X133096000Y-87757000D02*
X138811000Y-87757000D01*
X138811000Y-87757000D02*
X138811000Y-90043000D01*
X138811000Y-90043000D02*
X133096000Y-90043000D01*
X133096000Y-90043000D02*
X133096000Y-87757000D01*
X133096000Y-88900000D02*
X132715000Y-88900000D01*
X139192000Y-88900000D02*
X138811000Y-88900000D01*
G04 #@! TO.C,R3*
X132715000Y-92710000D02*
X133096000Y-92710000D01*
X138811000Y-92710000D02*
X139192000Y-92710000D01*
X138811000Y-91567000D02*
X138811000Y-93853000D01*
X133096000Y-91567000D02*
X138811000Y-91567000D01*
X133096000Y-93853000D02*
X133096000Y-91567000D01*
X138811000Y-93853000D02*
X133096000Y-93853000D01*
G04 #@! TO.C,R4*
X132715000Y-85090000D02*
X133096000Y-85090000D01*
X138811000Y-85090000D02*
X139192000Y-85090000D01*
X138811000Y-83947000D02*
X138811000Y-86233000D01*
X133096000Y-83947000D02*
X138811000Y-83947000D01*
X133096000Y-86233000D02*
X133096000Y-83947000D01*
X138811000Y-86233000D02*
X133096000Y-86233000D01*
G04 #@! TO.C,C1*
X125563333Y-73382142D02*
X125515714Y-73429761D01*
X125372857Y-73477380D01*
X125277619Y-73477380D01*
X125134761Y-73429761D01*
X125039523Y-73334523D01*
X124991904Y-73239285D01*
X124944285Y-73048809D01*
X124944285Y-72905952D01*
X124991904Y-72715476D01*
X125039523Y-72620238D01*
X125134761Y-72525000D01*
X125277619Y-72477380D01*
X125372857Y-72477380D01*
X125515714Y-72525000D01*
X125563333Y-72572619D01*
X126515714Y-73477380D02*
X125944285Y-73477380D01*
X126230000Y-73477380D02*
X126230000Y-72477380D01*
X126134761Y-72620238D01*
X126039523Y-72715476D01*
X125944285Y-72763095D01*
X131699047Y-71826428D02*
X132460952Y-71826428D01*
X132080000Y-72207380D02*
X132080000Y-71445476D01*
G04 #@! TO.C,D1*
X138961904Y-76017380D02*
X138961904Y-75017380D01*
X139200000Y-75017380D01*
X139342857Y-75065000D01*
X139438095Y-75160238D01*
X139485714Y-75255476D01*
X139533333Y-75445952D01*
X139533333Y-75588809D01*
X139485714Y-75779285D01*
X139438095Y-75874523D01*
X139342857Y-75969761D01*
X139200000Y-76017380D01*
X138961904Y-76017380D01*
X140485714Y-76017380D02*
X139914285Y-76017380D01*
X140200000Y-76017380D02*
X140200000Y-75017380D01*
X140104761Y-75160238D01*
X140009523Y-75255476D01*
X139914285Y-75303095D01*
X134112047Y-72969428D02*
X134873952Y-72969428D01*
X134493000Y-73350380D02*
X134493000Y-72588476D01*
G04 #@! TO.C,J1*
X142962380Y-105108333D02*
X143676666Y-105108333D01*
X143819523Y-105155952D01*
X143914761Y-105251190D01*
X143962380Y-105394047D01*
X143962380Y-105489285D01*
X143962380Y-104108333D02*
X143962380Y-104679761D01*
X143962380Y-104394047D02*
X142962380Y-104394047D01*
X143105238Y-104489285D01*
X143200476Y-104584523D01*
X143248095Y-104679761D01*
G04 #@! TO.C,M1*
X122380476Y-76652380D02*
X122380476Y-75652380D01*
X122713809Y-76366666D01*
X123047142Y-75652380D01*
X123047142Y-76652380D01*
X124047142Y-76652380D02*
X123475714Y-76652380D01*
X123761428Y-76652380D02*
X123761428Y-75652380D01*
X123666190Y-75795238D01*
X123570952Y-75890476D01*
X123475714Y-75938095D01*
G04 #@! TO.C,R1*
X143327380Y-96686666D02*
X142851190Y-97020000D01*
X143327380Y-97258095D02*
X142327380Y-97258095D01*
X142327380Y-96877142D01*
X142375000Y-96781904D01*
X142422619Y-96734285D01*
X142517857Y-96686666D01*
X142660714Y-96686666D01*
X142755952Y-96734285D01*
X142803571Y-96781904D01*
X142851190Y-96877142D01*
X142851190Y-97258095D01*
X143327380Y-95734285D02*
X143327380Y-96305714D01*
X143327380Y-96020000D02*
X142327380Y-96020000D01*
X142470238Y-96115238D01*
X142565476Y-96210476D01*
X142613095Y-96305714D01*
G04 #@! TO.C,R2*
X143327380Y-89066666D02*
X142851190Y-89400000D01*
X143327380Y-89638095D02*
X142327380Y-89638095D01*
X142327380Y-89257142D01*
X142375000Y-89161904D01*
X142422619Y-89114285D01*
X142517857Y-89066666D01*
X142660714Y-89066666D01*
X142755952Y-89114285D01*
X142803571Y-89161904D01*
X142851190Y-89257142D01*
X142851190Y-89638095D01*
X142422619Y-88685714D02*
X142375000Y-88638095D01*
X142327380Y-88542857D01*
X142327380Y-88304761D01*
X142375000Y-88209523D01*
X142422619Y-88161904D01*
X142517857Y-88114285D01*
X142613095Y-88114285D01*
X142755952Y-88161904D01*
X143327380Y-88733333D01*
X143327380Y-88114285D01*
G04 #@! TO.C,R3*
X143327380Y-92876666D02*
X142851190Y-93210000D01*
X143327380Y-93448095D02*
X142327380Y-93448095D01*
X142327380Y-93067142D01*
X142375000Y-92971904D01*
X142422619Y-92924285D01*
X142517857Y-92876666D01*
X142660714Y-92876666D01*
X142755952Y-92924285D01*
X142803571Y-92971904D01*
X142851190Y-93067142D01*
X142851190Y-93448095D01*
X142327380Y-92543333D02*
X142327380Y-91924285D01*
X142708333Y-92257619D01*
X142708333Y-92114761D01*
X142755952Y-92019523D01*
X142803571Y-91971904D01*
X142898809Y-91924285D01*
X143136904Y-91924285D01*
X143232142Y-91971904D01*
X143279761Y-92019523D01*
X143327380Y-92114761D01*
X143327380Y-92400476D01*
X143279761Y-92495714D01*
X143232142Y-92543333D01*
G04 #@! TO.C,R4*
X143327380Y-85256666D02*
X142851190Y-85590000D01*
X143327380Y-85828095D02*
X142327380Y-85828095D01*
X142327380Y-85447142D01*
X142375000Y-85351904D01*
X142422619Y-85304285D01*
X142517857Y-85256666D01*
X142660714Y-85256666D01*
X142755952Y-85304285D01*
X142803571Y-85351904D01*
X142851190Y-85447142D01*
X142851190Y-85828095D01*
X142660714Y-84399523D02*
X143327380Y-84399523D01*
X142279761Y-84637619D02*
X142994047Y-84875714D01*
X142994047Y-84256666D01*
G04 #@! TD*
M02*
