G04 #@! TF.GenerationSoftware,KiCad,Pcbnew,5.0.0-fee4fd1~65~ubuntu17.10.1*
G04 #@! TF.CreationDate,2018-11-13T13:37:27+00:00*
G04 #@! TF.ProjectId,Power Monitor Version 1,506F776572204D6F6E69746F72205665,rev?*
G04 #@! TF.SameCoordinates,Original*
G04 #@! TF.FileFunction,Legend,Bot*
G04 #@! TF.FilePolarity,Positive*
%FSLAX46Y46*%
G04 Gerber Fmt 4.6, Leading zero omitted, Abs format (unit mm)*
G04 Created by KiCad (PCBNEW 5.0.0-fee4fd1~65~ubuntu17.10.1) date Tue Nov 13 13:37:27 2018*
%MOMM*%
%LPD*%
G01*
G04 APERTURE LIST*
%ADD10C,0.300000*%
G04 APERTURE END LIST*
D10*
X141104285Y-80458571D02*
X140604285Y-81958571D01*
X140104285Y-80458571D01*
X139032857Y-81887142D02*
X139175714Y-81958571D01*
X139461428Y-81958571D01*
X139604285Y-81887142D01*
X139675714Y-81744285D01*
X139675714Y-81172857D01*
X139604285Y-81030000D01*
X139461428Y-80958571D01*
X139175714Y-80958571D01*
X139032857Y-81030000D01*
X138961428Y-81172857D01*
X138961428Y-81315714D01*
X139675714Y-81458571D01*
X138318571Y-81958571D02*
X138318571Y-80958571D01*
X138318571Y-81244285D02*
X138247142Y-81101428D01*
X138175714Y-81030000D01*
X138032857Y-80958571D01*
X137890000Y-80958571D01*
X137461428Y-81887142D02*
X137318571Y-81958571D01*
X137032857Y-81958571D01*
X136890000Y-81887142D01*
X136818571Y-81744285D01*
X136818571Y-81672857D01*
X136890000Y-81530000D01*
X137032857Y-81458571D01*
X137247142Y-81458571D01*
X137390000Y-81387142D01*
X137461428Y-81244285D01*
X137461428Y-81172857D01*
X137390000Y-81030000D01*
X137247142Y-80958571D01*
X137032857Y-80958571D01*
X136890000Y-81030000D01*
X136175714Y-81958571D02*
X136175714Y-80958571D01*
X136175714Y-80458571D02*
X136247142Y-80530000D01*
X136175714Y-80601428D01*
X136104285Y-80530000D01*
X136175714Y-80458571D01*
X136175714Y-80601428D01*
X135247142Y-81958571D02*
X135390000Y-81887142D01*
X135461428Y-81815714D01*
X135532857Y-81672857D01*
X135532857Y-81244285D01*
X135461428Y-81101428D01*
X135390000Y-81030000D01*
X135247142Y-80958571D01*
X135032857Y-80958571D01*
X134890000Y-81030000D01*
X134818571Y-81101428D01*
X134747142Y-81244285D01*
X134747142Y-81672857D01*
X134818571Y-81815714D01*
X134890000Y-81887142D01*
X135032857Y-81958571D01*
X135247142Y-81958571D01*
X134104285Y-80958571D02*
X134104285Y-81958571D01*
X134104285Y-81101428D02*
X134032857Y-81030000D01*
X133890000Y-80958571D01*
X133675714Y-80958571D01*
X133532857Y-81030000D01*
X133461428Y-81172857D01*
X133461428Y-81958571D01*
X130818571Y-81958571D02*
X131675714Y-81958571D01*
X131247142Y-81958571D02*
X131247142Y-80458571D01*
X131390000Y-80672857D01*
X131532857Y-80815714D01*
X131675714Y-80887142D01*
X146282857Y-78632857D02*
X145782857Y-78632857D01*
X145568571Y-79418571D02*
X146282857Y-79418571D01*
X146282857Y-77918571D01*
X145568571Y-77918571D01*
X144997142Y-79347142D02*
X144782857Y-79418571D01*
X144425714Y-79418571D01*
X144282857Y-79347142D01*
X144211428Y-79275714D01*
X144140000Y-79132857D01*
X144140000Y-78990000D01*
X144211428Y-78847142D01*
X144282857Y-78775714D01*
X144425714Y-78704285D01*
X144711428Y-78632857D01*
X144854285Y-78561428D01*
X144925714Y-78490000D01*
X144997142Y-78347142D01*
X144997142Y-78204285D01*
X144925714Y-78061428D01*
X144854285Y-77990000D01*
X144711428Y-77918571D01*
X144354285Y-77918571D01*
X144140000Y-77990000D01*
X143497142Y-79418571D02*
X143497142Y-77918571D01*
X142925714Y-77918571D01*
X142782857Y-77990000D01*
X142711428Y-78061428D01*
X142640000Y-78204285D01*
X142640000Y-78418571D01*
X142711428Y-78561428D01*
X142782857Y-78632857D01*
X142925714Y-78704285D01*
X143497142Y-78704285D01*
X141997142Y-78847142D02*
X140854285Y-78847142D01*
X140140000Y-79418571D02*
X140140000Y-77918571D01*
X139568571Y-77918571D01*
X139425714Y-77990000D01*
X139354285Y-78061428D01*
X139282857Y-78204285D01*
X139282857Y-78418571D01*
X139354285Y-78561428D01*
X139425714Y-78632857D01*
X139568571Y-78704285D01*
X140140000Y-78704285D01*
X138425714Y-79418571D02*
X138568571Y-79347142D01*
X138640000Y-79275714D01*
X138711428Y-79132857D01*
X138711428Y-78704285D01*
X138640000Y-78561428D01*
X138568571Y-78490000D01*
X138425714Y-78418571D01*
X138211428Y-78418571D01*
X138068571Y-78490000D01*
X137997142Y-78561428D01*
X137925714Y-78704285D01*
X137925714Y-79132857D01*
X137997142Y-79275714D01*
X138068571Y-79347142D01*
X138211428Y-79418571D01*
X138425714Y-79418571D01*
X137425714Y-78418571D02*
X137140000Y-79418571D01*
X136854285Y-78704285D01*
X136568571Y-79418571D01*
X136282857Y-78418571D01*
X135140000Y-79347142D02*
X135282857Y-79418571D01*
X135568571Y-79418571D01*
X135711428Y-79347142D01*
X135782857Y-79204285D01*
X135782857Y-78632857D01*
X135711428Y-78490000D01*
X135568571Y-78418571D01*
X135282857Y-78418571D01*
X135140000Y-78490000D01*
X135068571Y-78632857D01*
X135068571Y-78775714D01*
X135782857Y-78918571D01*
X134425714Y-79418571D02*
X134425714Y-78418571D01*
X134425714Y-78704285D02*
X134354285Y-78561428D01*
X134282857Y-78490000D01*
X134140000Y-78418571D01*
X133997142Y-78418571D01*
X132425714Y-79347142D02*
X132211428Y-79418571D01*
X131854285Y-79418571D01*
X131711428Y-79347142D01*
X131640000Y-79275714D01*
X131568571Y-79132857D01*
X131568571Y-78990000D01*
X131640000Y-78847142D01*
X131711428Y-78775714D01*
X131854285Y-78704285D01*
X132140000Y-78632857D01*
X132282857Y-78561428D01*
X132354285Y-78490000D01*
X132425714Y-78347142D01*
X132425714Y-78204285D01*
X132354285Y-78061428D01*
X132282857Y-77990000D01*
X132140000Y-77918571D01*
X131782857Y-77918571D01*
X131568571Y-77990000D01*
X130354285Y-79347142D02*
X130497142Y-79418571D01*
X130782857Y-79418571D01*
X130925714Y-79347142D01*
X130997142Y-79204285D01*
X130997142Y-78632857D01*
X130925714Y-78490000D01*
X130782857Y-78418571D01*
X130497142Y-78418571D01*
X130354285Y-78490000D01*
X130282857Y-78632857D01*
X130282857Y-78775714D01*
X130997142Y-78918571D01*
X129640000Y-78418571D02*
X129640000Y-79418571D01*
X129640000Y-78561428D02*
X129568571Y-78490000D01*
X129425714Y-78418571D01*
X129211428Y-78418571D01*
X129068571Y-78490000D01*
X128997142Y-78632857D01*
X128997142Y-79418571D01*
X128354285Y-79347142D02*
X128211428Y-79418571D01*
X127925714Y-79418571D01*
X127782857Y-79347142D01*
X127711428Y-79204285D01*
X127711428Y-79132857D01*
X127782857Y-78990000D01*
X127925714Y-78918571D01*
X128140000Y-78918571D01*
X128282857Y-78847142D01*
X128354285Y-78704285D01*
X128354285Y-78632857D01*
X128282857Y-78490000D01*
X128140000Y-78418571D01*
X127925714Y-78418571D01*
X127782857Y-78490000D01*
X126854285Y-79418571D02*
X126997142Y-79347142D01*
X127068571Y-79275714D01*
X127140000Y-79132857D01*
X127140000Y-78704285D01*
X127068571Y-78561428D01*
X126997142Y-78490000D01*
X126854285Y-78418571D01*
X126640000Y-78418571D01*
X126497142Y-78490000D01*
X126425714Y-78561428D01*
X126354285Y-78704285D01*
X126354285Y-79132857D01*
X126425714Y-79275714D01*
X126497142Y-79347142D01*
X126640000Y-79418571D01*
X126854285Y-79418571D01*
X125711428Y-79418571D02*
X125711428Y-78418571D01*
X125711428Y-78704285D02*
X125640000Y-78561428D01*
X125568571Y-78490000D01*
X125425714Y-78418571D01*
X125282857Y-78418571D01*
M02*
